<?xml version="1.0" encoding="UTF-8" standalone="no"?>
<svg
   xmlns:dc="http://purl.org/dc/elements/1.1/"
   xmlns:cc="http://creativecommons.org/ns#"
   xmlns:rdf="http://www.w3.org/1999/02/22-rdf-syntax-ns#"
   xmlns:svg="http://www.w3.org/2000/svg"
   xmlns="http://www.w3.org/2000/svg"
   id="SVGRoot"
   version="1.1"
   viewBox="0 0 1920 1080"
   height="1080px"
   width="1920px">
  <defs
     id="defs10" />
  <metadata
     id="metadata13">
    <rdf:RDF>
      <cc:Work
         rdf:about="">
        <dc:format>image/svg+xml</dc:format>
        <dc:type
           rdf:resource="http://purl.org/dc/dcmitype/StillImage" />
        <dc:title></dc:title>
      </cc:Work>
    </rdf:RDF>
  </metadata>
  <g
     id="text30"
     style="font-style:normal;font-variant:normal;font-weight:normal;font-stretch:normal;font-size:226.45942688px;line-height:1.25;font-family:Dyuthi;-inkscape-font-specification:'Dyuthi, Normal';font-variant-ligatures:normal;font-variant-caps:normal;font-variant-numeric:normal;text-align:start;letter-spacing:0px;word-spacing:0px;writing-mode:lr-tb;text-anchor:start;fill:none;fill-opacity:1;stroke:#000000;stroke-width:7.30000019;stroke-miterlimit:4;stroke-dasharray:none;stroke-opacity:1"
     transform="scale(0.6993725,1.4298532)"
     aria-label="D">
    <path
       id="path972"
       style="stroke-width:7.30000019;stroke-miterlimit:4;stroke-dasharray:none"
       d="m 434.45627,462.65642 q 0,0 0.11058,0 21.23057,0 36.15831,-13.71141 13.60084,-12.3845 13.60084,-47.76878 0,-20.56712 -13.60084,-33.06219 -14.92774,-13.71141 -36.15831,-13.71141 0,0 -0.11058,0 -4.42303,0 -7.62974,3.09612 -3.09612,3.09613 -3.09612,7.85089 v 86.35977 q 0,4.53361 3.09612,7.74031 3.20671,3.2067 7.62974,3.2067 z M 403.49502,340.13834 q 23.77382,-1.65864 31.29298,-1.65864 37.1535,0 61.59077,19.01905 24.43727,19.01905 24.43727,52.41297 0,30.07665 -20.56711,48.43224 -22.22576,19.35078 -61.81193,19.35078 -7.29801,0 -34.72083,-1.32691 -4.42303,-0.22115 -7.29801,-3.2067 -2.76439,-3.09612 -2.76439,-7.51916 V 350.64305 q 0,-4.20189 2.87497,-7.29801 2.7644,-2.7644 6.96628,-3.2067 z" />
  </g>
  <g
     id="text34"
     style="font-style:normal;font-variant:normal;font-weight:normal;font-stretch:normal;font-size:226.45942688px;line-height:1.25;font-family:Dyuthi;-inkscape-font-specification:'Dyuthi, Normal';font-variant-ligatures:normal;font-variant-caps:normal;font-variant-numeric:normal;text-align:start;letter-spacing:0px;word-spacing:0px;writing-mode:lr-tb;text-anchor:start;fill:none;fill-opacity:1;stroke:#000000;stroke-width:7.30000019;stroke-miterlimit:4;stroke-dasharray:none;stroke-opacity:1"
     transform="scale(0.69937249,1.4298532)"
     aria-label="E">
    <path
       id="path975"
       style="stroke-width:7.30000019;stroke-miterlimit:4;stroke-dasharray:none"
       d="m 669.59653,453.31111 45.77842,-0.8846 q 4.86534,-0.11058 8.7355,3.42785 3.87015,3.53843 3.87015,9.06722 v 0.44231 q 0,5.19706 -3.649,8.95664 -3.649,3.64901 -8.95665,3.53843 h -59.26867 q -8.07204,0 -13.93257,-5.86052 -5.86052,-5.86052 -5.86052,-13.93256 v -99.96061 q 0,-7.96146 5.63937,-13.93256 5.63937,-5.86052 14.15372,-5.86052 h 56.28312 q 6.30283,0 9.84126,4.42303 5.41822,6.63456 2.32209,12.93738 -3.09612,6.30283 -4.31246,7.29801 -3.75958,2.98555 -8.07204,2.7644 l -42.57172,-1.99037 v 31.40355 l 40.13905,-0.99518 q 4.97592,-0.11057 8.7355,3.42785 3.75958,3.53843 3.75958,8.84608 v 0.4423 q 0,5.30764 -3.75958,8.95665 -3.75958,3.649 -8.7355,3.53842 l -40.13905,-0.99518 z" />
  </g>
  <g
     id="text38"
     style="font-style:normal;font-variant:normal;font-weight:normal;font-stretch:normal;font-size:226.45942688px;line-height:1.25;font-family:Dyuthi;-inkscape-font-specification:'Dyuthi, Normal';font-variant-ligatures:normal;font-variant-caps:normal;font-variant-numeric:normal;text-align:start;letter-spacing:0px;word-spacing:0px;writing-mode:lr-tb;text-anchor:start;fill:none;fill-opacity:1;stroke:#000000;stroke-width:7.30000019;stroke-miterlimit:4;stroke-dasharray:none;stroke-opacity:1"
     transform="scale(0.69937249,1.4298532)"
     aria-label="S">
    <path
       id="path978"
       style="stroke-width:7.30000019;stroke-miterlimit:4;stroke-dasharray:none"
       d="m 954.05374,436.17546 q 0,17.80272 -12.49508,29.52376 -14.92774,13.71141 -43.5669,13.71141 -10.94701,0 -27.20167,-4.86534 -5.08649,-1.21633 -7.85089,-6.08167 -2.87497,-4.86534 -1.65864,-10.06241 l 0.22115,-0.4423 q 1.43749,-5.63937 6.41341,-8.40377 5.08649,-2.87497 10.72586,-0.99518 13.2691,4.20188 22.22575,4.20188 8.84607,0 14.48544,-3.87015 5.63937,-3.87016 5.63937,-10.06241 0,-6.30283 -4.97591,-10.28356 -5.08649,-3.98073 -17.58157,-8.51434 -38.36983,-13.71141 -38.36983,-41.57654 0,-19.01905 14.48544,-30.18722 14.48544,-11.72104 38.14868,-11.49989 8.51435,0 22.88921,3.53843 5.19707,1.21633 8.07204,6.19225 2.87498,4.97591 1.54806,10.17298 l -0.22115,0.22115 q -1.65864,5.08649 -6.08167,7.74032 -4.53361,2.76439 -9.84126,1.32691 -22.0046,-6.19225 -31.07182,0.99518 -4.86534,3.87016 -4.86534,9.50953 0,5.63937 5.52879,9.1778 5.41822,3.53842 21.78346,9.73067 33.61507,12.60566 33.61507,40.80251 z" />
  </g>
  <g
     id="text42"
     style="font-style:normal;font-variant:normal;font-weight:normal;font-stretch:normal;font-size:226.45942688px;line-height:1.25;font-family:Dyuthi;-inkscape-font-specification:'Dyuthi, Normal';font-variant-ligatures:normal;font-variant-caps:normal;font-variant-numeric:normal;text-align:start;letter-spacing:0px;word-spacing:0px;writing-mode:lr-tb;text-anchor:start;fill:none;fill-opacity:1;stroke:#000000;stroke-width:7.30000019;stroke-miterlimit:4;stroke-dasharray:none;stroke-opacity:1"
     transform="scale(0.69937249,1.4298532)"
     aria-label="I">
    <path
       id="path981"
       style="stroke-width:7.30000019;stroke-miterlimit:4;stroke-dasharray:none"
       d="m 1148.6125,462.26935 q 0,6.74513 -4.7547,11.61046 -4.7548,4.86534 -11.6105,4.86534 h -0.3317 q -6.8557,0 -11.7211,-4.75476 -4.8653,-4.86534 -4.8653,-11.72104 v -108.2538 q 0,-6.85571 4.8653,-11.72105 4.8654,-4.86534 11.7211,-4.86534 h 0.3317 q 6.6345,0 11.4999,4.75477 4.8653,4.75476 4.8653,11.83162 z" />
  </g>
  <g
     id="text46"
     style="font-style:normal;font-variant:normal;font-weight:normal;font-stretch:normal;font-size:226.45942688px;line-height:1.25;font-family:Dyuthi;-inkscape-font-specification:'Dyuthi, Normal';font-variant-ligatures:normal;font-variant-caps:normal;font-variant-numeric:normal;text-align:start;letter-spacing:0px;word-spacing:0px;writing-mode:lr-tb;text-anchor:start;fill:none;fill-opacity:1;stroke:#000000;stroke-width:7.30000019;stroke-miterlimit:4;stroke-dasharray:none;stroke-opacity:1"
     transform="scale(0.69937249,1.4298532)"
     aria-label="G">
    <path
       id="path984"
       style="stroke-width:7.30000019;stroke-miterlimit:4;stroke-dasharray:none"
       d="m 1376.011,399.18579 q 0,0 30.9612,0 5.6394,-0.22115 9.6201,3.87016 3.9808,3.98073 3.8702,9.6201 v 41.46596 q -0.2212,7.62973 -5.0865,13.71141 -4.8653,5.86052 -10.5047,6.96628 -5.6394,1.10576 -14.596,2.54325 -8.9567,1.54806 -19.9037,1.54806 -36.9323,0 -56.836,-19.12963 -20.0142,-19.12963 -20.2354,-49.64858 0.2212,-34.05737 22.9998,-53.51873 22.7786,-19.35078 57.4995,-19.35078 8.072,0 32.2881,1.99037 4.8654,0.4423 7.7403,4.42303 5.1971,8.07204 1.7692,17.80272 l -0.2211,0.22115 q -3.9807,9.84126 -13.4903,9.06723 l -30.8506,-3.09613 q -24.9902,-2.43267 -34.942,8.29319 -14.3749,15.1489 -12.2739,36.37947 1.6586,17.80272 15.37,30.07664 13.822,12.27393 33.0622,12.27393 h 5.5288 q 3.7596,0 7.1874,-3.42785 3.4279,-3.42786 3.4279,-7.07686 V 428.0461 q 0,-3.64901 -2.4327,-5.63937 -2.875,-3.2067 -5.3076,-1.99037 l -6.4134,3.2067 q -7.6298,3.64901 -10.0624,-5.63937 v -0.22115 q -2.4327,-8.07204 1.9903,-13.71141 3.5384,-4.86534 9.8413,-4.86534 z" />
  </g>
  <g
     id="text50"
     style="font-style:normal;font-variant:normal;font-weight:normal;font-stretch:normal;font-size:226.45942688px;line-height:1.25;font-family:Dyuthi;-inkscape-font-specification:'Dyuthi, Normal';font-variant-ligatures:normal;font-variant-caps:normal;font-variant-numeric:normal;text-align:start;letter-spacing:0px;word-spacing:0px;writing-mode:lr-tb;text-anchor:start;fill:none;fill-opacity:1;stroke:#000000;stroke-width:7.30000019;stroke-miterlimit:4;stroke-dasharray:none;stroke-opacity:1"
     transform="scale(0.69937249,1.4298532)"
     aria-label="N">
    <path
       id="path987"
       style="stroke-width:7.30000019;stroke-miterlimit:4;stroke-dasharray:none"
       d="m 1549.562,384.75565 1.9903,76.40794 q 0.2212,6.30283 -4.6442,11.49989 -4.6441,4.86534 -11.4998,4.86534 h -0.4424 q -8.5143,0 -13.2691,-4.86534 -4.8653,-4.64418 -4.8653,-11.49989 V 354.78958 q 0,-6.63455 4.8653,-11.49989 4.4231,-4.64419 11.2788,-4.64419 h 9.7307 q 8.7355,0 13.2691,6.85571 l 58.1629,86.13862 -2.101,-76.85025 q -0.2211,-6.52397 4.7548,-11.27874 4.8653,-4.86534 11.3893,-4.86534 h 0.4423 q 8.7355,0 13.4903,4.64419 4.6442,4.64419 4.6442,11.49989 v 96.86449 q 0,6.30282 -7.4086,18.13444 -6.3028,7.74031 -18.1345,7.74031 h -0.6634 q -14.1537,0 -21.7835,-12.49507 z" />
  </g>
  <g
     id="text54"
     style="font-style:normal;font-variant:normal;font-weight:normal;font-stretch:normal;font-size:226.45942688px;line-height:1.25;font-family:Dyuthi;-inkscape-font-specification:'Dyuthi, Normal';font-variant-ligatures:normal;font-variant-caps:normal;font-variant-numeric:normal;text-align:start;letter-spacing:0px;word-spacing:0px;writing-mode:lr-tb;text-anchor:start;fill:none;fill-opacity:1;stroke:#000000;stroke-width:7.30000019;stroke-miterlimit:4;stroke-dasharray:none;stroke-opacity:1"
     transform="scale(0.69937249,1.4298532)"
     aria-label="E">
    <path
       id="path990"
       style="stroke-width:7.30000019;stroke-miterlimit:4;stroke-dasharray:none"
       d="m 1794.1563,453.31111 45.7785,-0.8846 q 4.8653,-0.11058 8.7355,3.42785 3.8701,3.53843 3.8701,9.06722 v 0.44231 q 0,5.19706 -3.649,8.95664 -3.649,3.64901 -8.9566,3.53843 h -59.2687 q -8.0721,0 -13.9326,-5.86052 -5.8605,-5.86052 -5.8605,-13.93256 v -99.96061 q 0,-7.96146 5.6394,-13.93256 5.6393,-5.86052 14.1537,-5.86052 h 56.2831 q 6.3028,0 9.8413,4.42303 5.4182,6.63456 2.3221,12.93738 -3.0962,6.30283 -4.3125,7.29801 -3.7596,2.98555 -8.072,2.7644 l -42.5718,-1.99037 v 31.40355 l 40.1391,-0.99518 q 4.9759,-0.11057 8.7355,3.42785 3.7596,3.53843 3.7596,8.84608 v 0.4423 q 0,5.30764 -3.7596,8.95665 -3.7596,3.649 -8.7355,3.53842 l -40.1391,-0.99518 z" />
  </g>
  <g
     id="text58"
     style="font-style:normal;font-variant:normal;font-weight:normal;font-stretch:normal;font-size:226.45942688px;line-height:1.25;font-family:Dyuthi;-inkscape-font-specification:'Dyuthi, Normal';font-variant-ligatures:normal;font-variant-caps:normal;font-variant-numeric:normal;text-align:start;letter-spacing:0px;word-spacing:0px;writing-mode:lr-tb;text-anchor:start;fill:none;fill-opacity:1;stroke:#000000;stroke-width:7.30000019;stroke-miterlimit:4;stroke-dasharray:none;stroke-opacity:1"
     transform="scale(0.6993725,1.4298532)"
     aria-label="R">
    <path
       id="path993"
       style="stroke-width:7.30000019;stroke-miterlimit:4;stroke-dasharray:none"
       d="m 2011.6003,352.85457 v 58.27349 h 15.9229 q 8.2932,-0.22115 14.1537,-6.19225 5.8606,-6.08167 5.75,-22.88921 0,-16.69695 -5.9711,-22.99978 -6.0817,-6.30283 -13.9326,-6.19225 z m 50.4226,65.79266 q 0,0 20.1248,33.83622 3.5384,5.9711 1.4375,14.59602 -2.2115,8.62492 -7.0769,8.62492 h -0.2211 q -5.6394,3.31727 -11.8316,1.54806 -12.9374,-3.31728 -18.1345,-18.90848 l -10.3941,-30.85067 -24.3267,0.4423 v 34.05737 q 0,6.85571 -4.9759,11.38932 -4.9759,4.53361 -11.1682,4.53361 h -0.4423 q -6.6345,0 -11.3893,-4.75476 -4.7548,-4.75476 -4.7548,-11.16817 V 354.62378 q 0,-6.63455 4.8654,-11.49989 4.8653,-4.86534 11.721,-4.86534 h 38.1487 q 4.0913,0 6.9663,0.66346 16.1441,2.43267 26.9805,15.03832 10.8364,12.60565 10.8364,27.5334 0,14.92774 -8.5143,28.19685 -3.0961,4.86534 -7.8509,8.95665 z" />
  </g>
</svg>
